<?xml version="1.0" ?><svg enable-background="new 0 0 512 512" id="Layer_1" version="1.1" viewBox="0 0 512 512" xml:space="preserve" xmlns="http://www.w3.org/2000/svg" xmlns:xlink="http://www.w3.org/1999/xlink"><g><g><linearGradient gradientUnits="userSpaceOnUse" id="SVGID_1_" x1="-0.0000027" x2="512" y1="256" y2="256"><stop offset="0" style="stop-color:#00AEEE"/><stop offset="1" style="stop-color:#0095DA"/></linearGradient><circle cx="256" cy="256" fill="url(#SVGID_1_)" r="256"/><linearGradient gradientUnits="userSpaceOnUse" id="SVGID_2_" x1="42.6666641" x2="469.3333435" y1="256.0005188" y2="256.0005188"><stop offset="0" style="stop-color:#0095DA"/><stop offset="1" style="stop-color:#00AEEE"/></linearGradient><path d="M256,469.3338623c-117.6314697,0-213.3333435-95.7023926-213.3333435-213.3333435    c0-117.6314545,95.7018661-213.333313,213.3333435-213.333313c117.6357422,0,213.3333435,95.7018661,213.3333435,213.333313    C469.3333435,373.6314697,373.6357422,469.3338623,256,469.3338623z" fill="url(#SVGID_2_)"/></g><path d="M144.0005341,144.0005341v239.9989471h239.9989471V144.0005341H144.0005341z M187.7536011,363.3743896   h-23.8399963v-23.8410645h23.8399963V363.3743896z M187.7536011,319.6469421h-23.8399963v-23.8405457h23.8399963V319.6469421z    M187.7536011,275.9205322h-23.8399963v-23.8410645h23.8399963V275.9205322z M187.7536011,232.1930695h-23.8399963V208.352005   h23.8399963V232.1930695z M187.7536011,188.4656067h-23.8399963v-23.8400116h23.8399963V188.4656067z M321.1247864,154.0005341   v104.9989471h-114.249588V154.0005341H321.1247864z M206.8751984,373.9994812v-105h114.249588v105H206.8751984z    M364.0863953,363.3743896h-23.8410645v-23.8410645h23.8410645V363.3743896z M364.0863953,319.6469421h-23.8410645v-23.8405457   h23.8410645V319.6469421z M364.0863953,275.9205322h-23.8410645v-23.8410645h23.8410645V275.9205322z M364.0863953,232.1930695   h-23.8410645V208.352005h23.8410645V232.1930695z M364.0863953,188.4656067h-23.8410645v-23.8400116h23.8410645V188.4656067z" opacity="0.3"/><path d="M136.0005341,136.0005341v239.9989471h239.9989471V136.0005341H136.0005341z M179.7536011,355.3743896   h-23.8399963v-23.8410645h23.8399963V355.3743896z M179.7536011,311.6469421h-23.8399963v-23.8405457h23.8399963V311.6469421z    M179.7536011,267.9205322h-23.8399963v-23.8410645h23.8399963V267.9205322z M179.7536011,224.1930695h-23.8399963V200.352005   h23.8399963V224.1930695z M179.7536011,180.4656067h-23.8399963v-23.8400116h23.8399963V180.4656067z M313.1247864,146.0005341   v104.9989319h-114.249588V146.0005341H313.1247864z M198.8751984,365.9994812v-105h114.249588v105H198.8751984z    M356.0863953,355.3743896h-23.8410645v-23.8410645h23.8410645V355.3743896z M356.0863953,311.6469421h-23.8410645v-23.8405457   h23.8410645V311.6469421z M356.0863953,267.9205322h-23.8410645v-23.8410645h23.8410645V267.9205322z M356.0863953,224.1930695   h-23.8410645V200.352005h23.8410645V224.1930695z M356.0863953,180.4656067h-23.8410645v-23.8400116h23.8410645V180.4656067z" fill="#FFFFFF"/></g></svg>